<?xml version="1.0" encoding="iso-8859-1"?>
<!-- Generator: Adobe Illustrator 19.0.0, SVG Export Plug-In . SVG Version: 6.00 Build 0)  -->
<svg version="1.1" id="Layer_1" xmlns="http://www.w3.org/2000/svg" xmlns:xlink="http://www.w3.org/1999/xlink" x="0px" y="0px"
	 viewBox="0 0 512 512" style="enable-background:new 0 0 512 512;" xml:space="preserve">
<polygon style="fill:#FFC222;" points="384.282,206.656 322.342,206.656 306.668,212.962 290.827,268.459 306.668,330.263 
	384.282,330.263 "/>
<polygon style="fill:#FEDF77;" points="208.154,185.756 229.055,330.263 306.668,330.263 306.668,212.962 290.994,206.656 "/>
<polygon style="fill:#FFC222;" points="229.055,185.756 167.115,206.656 151.44,212.962 135.6,268.459 151.44,330.263 
	229.055,330.263 "/>
<polygon style="fill:#FEDF77;" points="73.827,206.656 73.827,330.263 151.44,330.263 151.44,212.962 135.766,206.656 "/>
<g>
	<polygon style="fill:#FF9500;" points="322.342,260.057 290.994,260.057 290.994,196.205 306.668,206.656 322.342,206.656 	"/>
	<polygon style="fill:#FF9500;" points="167.115,260.057 135.766,260.057 135.766,206.656 151.44,206.656 167.115,196.205 	"/>
</g>
<polygon style="fill:#FFC222;" points="306.668,83.048 244.729,83.048 229.055,89.356 213.214,144.853 229.055,206.656 
	306.668,206.656 "/>
<polygon style="fill:#FEDF77;" points="151.44,83.048 151.44,206.656 229.055,206.656 229.055,89.356 213.38,83.048 "/>
<rect x="213.377" y="83.044" style="fill:#FF9500;" width="31.348" height="53.397"/>
<polygon style="fill:#6F6F6F;" points="458.108,330.263 426.76,351.163 426.76,99.716 512,99.716 512,131.065 458.108,131.065 "/>
<polygon style="fill:#027ACD;" points="458.108,330.263 229.055,330.263 208.154,352.182 229.055,374.099 458.108,374.099 "/>
<rect y="330.267" style="fill:#3EAFF5;" width="229.051" height="43.836"/>
<path style="fill:#6F6F6F;" d="M64.559,354l-9.796,38.86l9.796,36.095c20.666,0,37.478-16.812,37.478-37.478S85.224,354,64.559,354z
	"/>
<path style="fill:#9D9D9D;" d="M27.081,391.478c0,20.666,16.812,37.478,37.478,37.478V354C43.894,354,27.081,370.813,27.081,391.478
	z"/>
<path style="fill:#D4D4D4;" d="M64.559,373.592l-9.796,17.886l9.796,17.886c9.862,0,17.886-8.024,17.886-17.886
	S74.422,373.592,64.559,373.592z"/>
<path style="fill:#EDEDED;" d="M46.672,391.478c0,9.862,8.024,17.886,17.886,17.886v-35.774
	C54.696,373.592,46.672,381.616,46.672,391.478z"/>
<path style="fill:#6F6F6F;" d="M393.549,354l-9.796,38.86l9.796,36.095c20.666,0,37.478-16.812,37.478-37.478
	S414.215,354,393.549,354z"/>
<path style="fill:#9D9D9D;" d="M356.072,391.478c0,20.666,16.812,37.478,37.478,37.478V354
	C372.884,354,356.072,370.813,356.072,391.478z"/>
<path style="fill:#D4D4D4;" d="M393.549,373.592l-9.796,17.886l9.796,17.886c9.862,0,17.886-8.024,17.886-17.886
	S403.412,373.592,393.549,373.592z"/>
<path style="fill:#EDEDED;" d="M375.662,391.478c0,9.862,8.024,17.886,17.886,17.886v-35.774
	C383.686,373.592,375.662,381.616,375.662,391.478z"/>
<g>
</g>
<g>
</g>
<g>
</g>
<g>
</g>
<g>
</g>
<g>
</g>
<g>
</g>
<g>
</g>
<g>
</g>
<g>
</g>
<g>
</g>
<g>
</g>
<g>
</g>
<g>
</g>
<g>
</g>
</svg>
