<?xml version="1.0" encoding="iso-8859-1"?>
<!-- Generator: Adobe Illustrator 19.0.0, SVG Export Plug-In . SVG Version: 6.00 Build 0)  -->
<svg version="1.1" id="Layer_1" xmlns="http://www.w3.org/2000/svg" xmlns:xlink="http://www.w3.org/1999/xlink" x="0px" y="0px"
	 viewBox="0 0 512 512" style="enable-background:new 0 0 512 512;" xml:space="preserve">
<circle style="fill:#FF877F;" cx="256" cy="256" r="243.2"/>
<path style="fill:#FFE7E5;" d="M256.188,188.791c-21.854,0-39.637-17.783-39.637-39.646s17.783-39.646,39.637-39.646
	c21.862,0,39.646,17.783,39.646,39.646S278.05,188.791,256.188,188.791z"/>
<rect x="274.944" y="303.642" style="fill:#BCB0AD;" width="66.645" height="52.446"/>
<path style="fill:#919CB0;" d="M232.96,403.465l-6.903-86.852h-26.871l18.714-102.972h76.604l16.35,90.001h-23.074
	c-7.057,0-12.8,5.743-12.8,12.8v26.846c0,3.413,1.34,6.63,3.763,9.062l4.147,4.13l-3.371,46.985H232.96z"/>
<g>
	<path style="fill:#573A32;" d="M308.292,149.146c0-28.723-23.373-52.079-52.096-52.079c-28.723,0-52.087,23.347-52.087,52.079
		s23.364,52.079,52.087,52.079C284.919,201.225,308.292,177.869,308.292,149.146z M256.196,175.991
		c-14.797,0-26.837-12.049-26.837-26.846s12.041-26.846,26.837-26.846s26.837,12.049,26.837,26.846
		C283.034,163.942,270.993,175.991,256.196,175.991z"/>
	<path style="fill:#573A32;" d="M328.815,290.842h-7.612l-13.235-72.798c-1.775-9.754-10.274-16.828-20.198-16.828h-31.573h-31.565
		c-9.924,0-18.423,7.074-20.198,16.828l-15.787,86.852c-1.084,5.999,0.529,12.126,4.437,16.802
		c3.908,4.702,9.651,7.373,15.761,7.373h5.709l5.385,67.951c0.862,10.598,9.847,18.876,20.463,18.876h31.573
		c10.641,0,19.627-8.277,20.463-18.876l2.227-28.126h34.133c14.14,0,25.6-11.46,25.6-25.6V316.45
		C354.415,302.31,342.946,290.842,328.815,290.842z M262.178,316.442v26.846c0,7.083,2.884,13.491,7.535,18.125l-2.099,29.252
		h-22.827l-6.903-86.852h-23.364l14.063-77.372h14.985v43.298c0,6.972,5.666,12.621,12.621,12.621
		c6.955,0,12.638-5.649,12.638-12.621v-43.298h14.985l11.699,64.401h-7.74C273.638,290.842,262.178,302.31,262.178,316.442z
		 M328.815,343.296h-41.037V316.45h41.037L328.815,343.296L328.815,343.296z"/>
	<path style="fill:#573A32;" d="M256,0C114.62,0,0,114.62,0,256s114.62,256,256,256s256-114.62,256-256S397.38,0,256,0z
		 M268.8,485.751V435.2h-25.6v50.551C126.387,479.292,32.708,385.613,26.249,268.8H76.8v-25.6H26.249
		C32.708,126.387,126.387,32.708,243.2,26.249V76.8h25.6V26.249c116.813,6.46,210.492,100.139,216.951,216.951H435.2v25.6h50.551
		C479.292,385.613,385.613,479.292,268.8,485.751z"/>
</g>
<g>
</g>
<g>
</g>
<g>
</g>
<g>
</g>
<g>
</g>
<g>
</g>
<g>
</g>
<g>
</g>
<g>
</g>
<g>
</g>
<g>
</g>
<g>
</g>
<g>
</g>
<g>
</g>
<g>
</g>
</svg>
