<?xml version="1.0" ?><svg width="25px" height="25px" viewBox="0 0 25 25" xmlns="http://www.w3.org/2000/svg"><defs><style>.cls-1{fill:#ff7900;}</style></defs><g data-name="calendar travel" id="calendar_travel"><path class="cls-1" d="M22.5,3H21V2a1,1,0,0,0-1-1H19a1,1,0,0,0-1,1V3H14V2a1,1,0,0,0-1-1H12a1,1,0,0,0-1,1V3H7V2A1,1,0,0,0,6,1H5A1,1,0,0,0,4,2V3H2.5A1.5,1.5,0,0,0,1,4.5v18A1.5,1.5,0,0,0,2.5,24h20A1.5,1.5,0,0,0,24,22.5V4.5A1.5,1.5,0,0,0,22.5,3ZM19,2l1,0,0,3L19,5ZM12,2l1,0V3.44s0,0,0,.06,0,0,0,.07L13,5,12,5ZM5,2,6,2,6,5,5,5ZM2.5,4H4V5A1,1,0,0,0,5,6H6A1,1,0,0,0,7,5V4h4V5a1,1,0,0,0,1,1H13a1,1,0,0,0,1-1V4h4V5a1,1,0,0,0,1,1H20a1,1,0,0,0,1-1V4h1.5a.5.5,0,0,1,.5.5V8H2V4.5A.5.5,0,0,1,2.5,4Zm20,19H2.5a.5.5,0,0,1-.5-.5V9H23V22.5A.5.5,0,0,1,22.5,23Z"/><path class="cls-1" d="M17.65,11.57a8.7,8.7,0,0,0-2.81.28l-3-1.63a.52.52,0,0,0-.47,0l-1.78.93a.51.51,0,0,0-.11.81l1.86,1.79c-.67.55-1.39,1.21-2.2,2a.28.28,0,0,0-.1-.09l-1.59-.88a.51.51,0,0,0-.48,0l-.88.47a.48.48,0,0,0-.25.29.46.46,0,0,0,0,.38l1.39,2.66h0l1.46,2.65a.5.5,0,0,0,.44.25.43.43,0,0,0,.24-.06l.88-.48a.5.5,0,0,0,.25-.4l.15-1.81s0,0,0-.06c1.1-.23,2.05-.44,2.89-.68L14,20.52a.52.52,0,0,0,.27.37.59.59,0,0,0,.22.05.53.53,0,0,0,.24-.06L16.49,20a.46.46,0,0,0,.26-.39l.36-3.41A8.67,8.67,0,0,0,18.94,14a1.59,1.59,0,0,0,0-1.58A1.57,1.57,0,0,0,17.65,11.57Zm-7,.14.92-.49,2,1.08a8.9,8.9,0,0,0-1.42.83Zm-3.47,4,1.21.67c-.27.26-.51.5-.74.74L7,15.87Zm2.17,4.53L8.69,19l1-.18-.1,1.31Zm5.49-.62-.33-2A9.14,9.14,0,0,0,16,17l-.23,2.24Zm3.22-6.17a7.75,7.75,0,0,1-1.77,2c-1.57,1.27-3.41,1.65-6.45,2.27Q9,18,8.25,18.1l0,.18,0,0,0-.21c.34-.36.73-.75,1.16-1.17,2.25-2.15,3.6-3.44,5.53-4h0a7.81,7.81,0,0,1,2.18-.31l.5,0a.59.59,0,0,1,.5.33A.61.61,0,0,1,18.09,13.5Z"/></g></svg>