<?xml version="1.0" encoding="iso-8859-1"?>
<!-- Generator: Adobe Illustrator 19.0.0, SVG Export Plug-In . SVG Version: 6.00 Build 0)  -->
<svg version="1.1" id="Layer_1" xmlns="http://www.w3.org/2000/svg" xmlns:xlink="http://www.w3.org/1999/xlink" x="0px" y="0px"
	 viewBox="0 0 430.28 430.28" style="enable-background:new 0 0 430.28 430.28;" xml:space="preserve">
<g>
	<path style="fill:#EFEFEF;" d="M352.22,351.81c0,12.95-12.54,28.5-25.5,28.5H161.25c4.88-6.57,7.77-19.71,7.77-28.5
		c0-8.8-2.88-21.93-7.76-28.5h165.46C339.68,323.31,352.22,338.85,352.22,351.81z"/>
	<rect x="147.06" y="11" style="fill:#EB7830;" width="128" height="34"/>
	<path style="fill:#EFEFEF;" d="M139.52,317.31h171.2V83h-200.7v268.81c0,12.95,16.55,28.5,29.5,28.5c12.96,0,30.5-15.55,30.5-28.5
		c0-12.96-17.54-30.5-30.5-30.5c-4.41,0-3,3.42-3-1S135.11,317.31,139.52,317.31z"/>
	<path style="fill:#3E81C8;" d="M316.72,320.31V85c0-4.42-3.58-8-8-8h-195.7c-4.41,0-8,3.58-8,8v266.81
		c0,21.78,17.72,34.5,39.5,34.5h178.2c5.44,0,15.62-6.11,20.34-8.1v41.07h-264V51h264v272.4c-4.72-1.99-19.9-3.09-25.34-3.09H316.72
		z"/>
	<rect x="148.03" y="129.94" style="fill:#F5C525;" width="49" height="49"/>
	<rect x="147.53" y="219.11" style="fill:#F5C525;" width="50" height="50"/>
	<g>
		<path style="fill:#231F20;" d="M354.06,327.79V48c0-4.42-3.59-8-8-8h-59.5V8c0-4.42-3.59-8-8-8h-135c-4.42,0-8,3.58-8,8v32h-59.5
			c-4.42,0-8,3.58-8,8v374.28c0,4.42,3.58,8,8,8h270c4.41,0,8-3.58,8-8v-46.46c5.11-6.66,8.16-14.98,8.16-24.01
			S359.17,334.45,354.06,327.79z M151.56,16h119v24h-119V16z M338.06,414.28h-254V56h254v259.4c-4.72-1.99-9.9-3.09-15.34-3.09h-1
			V80c0-4.42-3.58-8-8-8h-205.7c-4.41,0-8,3.58-8,8v271.81c0,21.78,17.72,39.5,39.5,39.5h183.2c5.44,0,10.62-1.11,15.34-3.1V414.28z
			 M139.52,328.31c12.96,0,23.5,10.54,23.5,23.5c0,12.95-10.54,23.5-23.5,23.5c-12.95,0-23.5-10.55-23.5-23.5V88h189.7v224.31
			h-166.2c-4.41,0-8,3.58-8,8S135.11,328.31,139.52,328.31z M322.72,375.31H171.25c4.88-6.57,7.77-14.71,7.77-23.5
			c0-8.8-2.88-16.93-7.76-23.5h151.46c12.96,0,23.5,10.54,23.5,23.5C346.22,364.76,335.68,375.31,322.72,375.31z"/>
		<path style="fill:#231F20;" d="M197,121.97h-48.94c-4.42,0-8,3.59-8,8v48.94c0,4.42,3.58,8,8,8H197c4.41,0,8-3.58,8-8v-48.94
			C205,125.56,201.41,121.97,197,121.97z M189,170.91h-32.94v-32.94H189V170.91z"/>
		<path style="fill:#231F20;" d="M287.31,140.39c0,4.42-3.59,8-8,8h-51c-4.42,0-8-3.58-8-8s3.58-8,8-8h51
			C283.72,132.39,287.31,135.97,287.31,140.39z"/>
		<path style="fill:#231F20;" d="M287.31,169.14c0,4.42-3.59,8-8,8h-51c-4.42,0-8-3.58-8-8s3.58-8,8-8h51
			C283.72,161.14,287.31,164.72,287.31,169.14z"/>
		<path style="fill:#231F20;" d="M197,211.64h-48.94c-4.42,0-8,3.58-8,8v48.94c0,4.42,3.58,8,8,8H197c4.41,0,8-3.58,8-8v-48.94
			C205,215.22,201.41,211.64,197,211.64z M189,260.58h-32.94v-32.94H189V260.58z"/>
		<path style="fill:#231F20;" d="M287.31,230.06c0,4.41-3.59,8-8,8h-51c-4.42,0-8-3.59-8-8c0-4.42,3.58-8,8-8h51
			C283.72,222.06,287.31,225.64,287.31,230.06z"/>
		<path style="fill:#231F20;" d="M287.31,258.81c0,4.41-3.59,8-8,8h-51c-4.42,0-8-3.59-8-8c0-4.42,3.58-8,8-8h51
			C283.72,250.81,287.31,254.39,287.31,258.81z"/>
	</g>
</g>
<g>
</g>
<g>
</g>
<g>
</g>
<g>
</g>
<g>
</g>
<g>
</g>
<g>
</g>
<g>
</g>
<g>
</g>
<g>
</g>
<g>
</g>
<g>
</g>
<g>
</g>
<g>
</g>
<g>
</g>
</svg>
