<svg width="612" height="177" viewBox="0 0 612 177" fill="none" xmlns="http://www.w3.org/2000/svg">
<path d="M56.192 34.776C48.4267 31.7893 41.088 30.296 34.176 30.296C27.3493 30.296 22.016 31.7467 18.176 34.648C14.336 37.5493 12.416 41.56 12.416 46.68C12.416 52.9093 15.6587 57.7307 22.144 61.144C25.0453 62.5947 28.2027 63.96 31.616 65.24C35.1147 66.4347 38.6133 67.8 42.112 69.336C45.6107 70.872 48.8107 72.6213 51.712 74.584C54.6133 76.5467 56.96 79.2773 58.752 82.776C60.544 86.1893 61.44 90.584 61.44 95.96C61.44 101.251 59.9467 105.773 56.96 109.528C53.9733 113.283 50.3467 115.843 46.08 117.208C41.8987 118.488 36.992 119.128 31.36 119.128C20.864 119.128 11.904 116.525 4.48 111.32L5.12 110.296C7.936 112.515 11.5627 114.349 16 115.8C20.5227 117.165 25.1307 117.848 29.824 117.848C36.736 117.848 42.624 116.269 47.488 113.112C52.4373 109.869 54.912 105.133 54.912 98.904C54.912 92.0773 51.6693 86.744 45.184 82.904C42.2827 81.1973 39.0827 79.6187 35.584 78.168C32.1707 76.7173 28.7147 75.224 25.216 73.688C21.7173 72.0667 18.5173 70.2747 15.616 68.312C9.13067 64.0453 5.888 57.9867 5.888 50.136C5.888 43.9067 7.97867 38.872 12.16 35.032C16.3413 31.1067 22.6133 29.144 30.976 29.144C39.424 29.144 48 30.5947 56.704 33.496L56.192 34.776ZM116.691 119.512C107.731 119.512 100.435 116.952 94.803 111.832C89.171 106.712 86.355 98.8187 86.355 88.152C86.355 77.4853 89.2563 69.208 95.059 63.32C100.947 57.432 108.371 54.488 117.331 54.488C126.376 54.488 133.715 57.048 139.347 62.168C144.979 67.288 147.795 75.1813 147.795 85.848C147.795 96.5147 144.851 104.792 138.963 110.68C133.16 116.568 125.736 119.512 116.691 119.512ZM117.587 55.512C111.102 55.512 105.726 58.4133 101.459 64.216C97.1923 69.9333 95.059 77.9547 95.059 88.28C95.059 98.52 97.0217 106.115 100.947 111.064C104.872 116.013 110.078 118.488 116.563 118.488C123.048 118.488 128.424 115.629 132.691 109.912C136.958 104.109 139.091 96.088 139.091 85.848C139.091 75.5227 137.128 67.8853 133.203 62.936C129.278 57.9867 124.072 55.512 117.587 55.512ZM189.596 119C182.087 119 177.351 117.037 175.388 113.112C174.961 112.259 174.748 111.491 174.748 110.808V23.128H183.708V109.912C183.708 112.387 184.177 114.307 185.116 115.672C186.14 116.952 187.164 117.635 188.188 117.72L189.596 117.976H193.564V119H189.596ZM227.535 104.28C227.535 111.021 229.327 115.331 232.911 117.208C234.618 118.061 236.794 118.488 239.439 118.488C244.815 118.488 249.594 116.44 253.775 112.344C258.042 108.248 260.346 104.451 260.687 100.952V55H269.647V109.912C269.647 112.387 270.116 114.307 271.055 115.672C272.079 116.952 273.103 117.635 274.127 117.72L275.535 117.976H279.503V119H271.695C268.196 119 265.508 118.232 263.631 116.696C261.839 115.16 260.9 113.624 260.815 112.088L260.687 109.912V104.408C259.151 108.077 256.42 111.533 252.495 114.776C248.57 117.933 244.26 119.512 239.567 119.512C234.959 119.512 231.162 119.085 228.175 118.232C225.274 117.293 223.183 116.013 221.903 114.392C219.684 111.747 218.575 108.333 218.575 104.152V55H227.535V104.28ZM300.67 56.024V55H303.358V42.2H312.318V55H331.902V56.024H312.318V102.616C312.318 108.163 312.915 112.173 314.11 114.648C315.39 117.123 317.993 118.36 321.918 118.36C325.929 118.36 329.982 117.549 334.078 115.928L334.462 116.952C330.195 118.573 325.289 119.384 319.742 119.384C314.281 119.384 310.185 118.275 307.454 116.056C304.723 113.752 303.358 109.229 303.358 102.488V56.024H300.67ZM368.601 119C365.102 119 362.414 118.232 360.537 116.696C358.745 115.16 357.806 113.624 357.721 112.088L357.593 109.912V55H366.553V109.912C366.553 112.387 367.022 114.307 367.961 115.672C368.985 116.952 369.966 117.635 370.905 117.72L372.441 117.976H376.409V119H368.601ZM358.361 40.664C357.337 39.64 356.825 38.36 356.825 36.824C356.825 35.288 357.337 34.008 358.361 32.984C359.385 31.8747 360.665 31.32 362.201 31.32C363.737 31.32 365.017 31.8747 366.041 32.984C367.15 34.008 367.705 35.288 367.705 36.824C367.705 38.36 367.15 39.64 366.041 40.664C365.017 41.688 363.737 42.2 362.201 42.2C360.665 42.2 359.385 41.688 358.361 40.664ZM425.991 119.512C417.031 119.512 409.735 116.952 404.103 111.832C398.471 106.712 395.655 98.8187 395.655 88.152C395.655 77.4853 398.556 69.208 404.359 63.32C410.247 57.432 417.671 54.488 426.631 54.488C435.676 54.488 443.015 57.048 448.647 62.168C454.279 67.288 457.095 75.1813 457.095 85.848C457.095 96.5147 454.151 104.792 448.263 110.68C442.46 116.568 435.036 119.512 425.991 119.512ZM426.887 55.512C420.402 55.512 415.026 58.4133 410.759 64.216C406.492 69.9333 404.359 77.9547 404.359 88.28C404.359 98.52 406.322 106.115 410.247 111.064C414.172 116.013 419.378 118.488 425.863 118.488C432.348 118.488 437.724 115.629 441.991 109.912C446.258 104.109 448.391 96.088 448.391 85.848C448.391 75.5227 446.428 67.8853 442.503 62.936C438.578 57.9867 433.372 55.512 426.887 55.512ZM533.26 119C529.761 119 527.073 118.232 525.196 116.696C523.404 115.16 522.465 113.624 522.38 112.088L522.252 109.912V69.72C522.252 62.9787 520.503 58.6693 517.004 56.792C515.212 55.9387 512.993 55.512 510.348 55.512C504.887 55.512 499.98 57.688 495.628 62.04C491.276 66.3067 489.1 70.1467 489.1 73.56V119H480.14V55H489.1V69.592C490.551 65.9227 493.239 62.5093 497.164 59.352C501.089 56.1093 505.399 54.488 510.092 54.488C514.785 54.488 518.583 54.9573 521.484 55.896C524.471 56.7493 526.647 57.9867 528.012 59.608C530.145 62.2533 531.212 65.6667 531.212 69.848V109.912C531.212 112.387 531.681 114.307 532.62 115.672C533.644 116.952 534.668 117.635 535.692 117.72L537.1 117.976H541.068V119H533.26ZM600.251 59.48C598.886 58.3707 596.667 57.432 593.595 56.664C590.608 55.896 588.347 55.512 586.811 55.512C585.275 55.512 584.379 55.512 584.123 55.512C579.515 55.5973 576.187 56.792 574.139 59.096C572.091 61.3147 571.067 63.832 571.067 66.648C571.067 69.464 571.963 71.8533 573.755 73.816C575.547 75.6933 577.766 77.1867 580.411 78.296C583.142 79.32 586.043 80.5147 589.115 81.88C592.272 83.2453 595.174 84.6533 597.819 86.104C600.55 87.4693 602.811 89.5173 604.603 92.248C606.395 94.8933 607.291 98.2213 607.291 102.232C607.291 106.243 605.883 109.656 603.067 112.472C600.251 115.288 597.094 117.165 593.595 118.104C590.182 119.043 586.47 119.512 582.459 119.512C573.755 119.512 567.227 117.592 562.875 113.752L563.643 112.984C565.35 114.605 567.867 115.928 571.195 116.952C574.608 117.976 577.894 118.488 581.051 118.488C586.086 118.488 590.224 117.123 593.467 114.392C596.795 111.576 598.459 108.12 598.459 104.024C598.459 99.8427 597.222 96.5147 594.747 94.04C592.272 91.48 589.243 89.5173 585.659 88.152C582.16 86.7013 578.619 85.2933 575.035 83.928C571.451 82.4773 568.422 80.5147 565.947 78.04C563.472 75.48 562.235 72.536 562.235 69.208C562.235 65.88 563.003 63.192 564.539 61.144C566.075 59.0107 568.123 57.5173 570.683 56.664C575.035 55.2133 579.387 54.488 583.739 54.488C591.078 54.488 596.795 55.8533 600.891 58.584L600.251 59.48Z" fill="#7A7C78"/>
<g filter="url(#filter0_d_224_23)">
<path d="M144.457 160.284C143.179 160.284 142.078 159.982 141.155 159.379C140.232 158.775 139.521 157.943 139.024 156.884C138.527 155.824 138.278 154.614 138.278 153.253C138.278 151.868 138.533 150.646 139.042 149.586C139.557 148.521 140.273 147.689 141.19 147.092C142.114 146.488 143.191 146.186 144.422 146.186C145.381 146.186 146.245 146.364 147.014 146.719C147.784 147.074 148.414 147.571 148.905 148.21C149.396 148.849 149.701 149.595 149.82 150.447H147.724C147.565 149.826 147.21 149.276 146.659 148.796C146.115 148.311 145.381 148.068 144.457 148.068C143.641 148.068 142.924 148.281 142.309 148.707C141.699 149.128 141.223 149.722 140.88 150.492C140.542 151.255 140.374 152.152 140.374 153.182C140.374 154.235 140.539 155.153 140.871 155.934C141.208 156.715 141.682 157.322 142.291 157.754C142.907 158.186 143.629 158.402 144.457 158.402C145.002 158.402 145.496 158.307 145.94 158.118C146.384 157.929 146.76 157.656 147.067 157.301C147.375 156.946 147.594 156.52 147.724 156.023H149.82C149.701 156.828 149.408 157.553 148.941 158.198C148.479 158.837 147.866 159.346 147.103 159.725C146.345 160.098 145.464 160.284 144.457 160.284ZM175.422 160.284C174.191 160.284 173.111 159.991 172.182 159.405C171.259 158.819 170.536 158 170.016 156.946C169.501 155.893 169.243 154.661 169.243 153.253C169.243 151.832 169.501 150.592 170.016 149.533C170.536 148.474 171.259 147.651 172.182 147.065C173.111 146.479 174.191 146.186 175.422 146.186C176.653 146.186 177.73 146.479 178.654 147.065C179.583 147.651 180.305 148.474 180.82 149.533C181.341 150.592 181.601 151.832 181.601 153.253C181.601 154.661 181.341 155.893 180.82 156.946C180.305 158 179.583 158.819 178.654 159.405C177.73 159.991 176.653 160.284 175.422 160.284ZM175.422 158.402C176.357 158.402 177.127 158.162 177.73 157.683C178.334 157.203 178.781 156.573 179.071 155.792C179.361 155.011 179.506 154.164 179.506 153.253C179.506 152.341 179.361 151.492 179.071 150.705C178.781 149.918 178.334 149.281 177.73 148.796C177.127 148.311 176.357 148.068 175.422 148.068C174.487 148.068 173.718 148.311 173.114 148.796C172.51 149.281 172.063 149.918 171.773 150.705C171.483 151.492 171.338 152.341 171.338 153.253C171.338 154.164 171.483 155.011 171.773 155.792C172.063 156.573 172.51 157.203 173.114 157.683C173.718 158.162 174.487 158.402 175.422 158.402ZM201.799 160V146.364H203.824V148.423H203.966C204.214 147.749 204.664 147.201 205.315 146.781C205.966 146.361 206.7 146.151 207.517 146.151C207.671 146.151 207.863 146.154 208.094 146.159C208.325 146.165 208.499 146.174 208.618 146.186V148.317C208.547 148.299 208.384 148.272 208.129 148.237C207.881 148.195 207.617 148.175 207.339 148.175C206.676 148.175 206.084 148.314 205.564 148.592C205.049 148.864 204.64 149.243 204.339 149.728C204.043 150.208 203.895 150.755 203.895 151.371V160H201.799ZM228.101 165.114V146.364H230.125V148.53H230.374C230.528 148.293 230.741 147.991 231.013 147.624C231.291 147.251 231.688 146.92 232.203 146.63C232.724 146.334 233.428 146.186 234.316 146.186C235.464 146.186 236.476 146.473 237.352 147.047C238.228 147.621 238.911 148.435 239.403 149.489C239.894 150.542 240.14 151.785 240.14 153.217C240.14 154.661 239.894 155.913 239.403 156.973C238.911 158.026 238.231 158.843 237.361 159.423C236.491 159.997 235.488 160.284 234.351 160.284C233.475 160.284 232.774 160.139 232.247 159.849C231.72 159.553 231.315 159.219 231.031 158.846C230.747 158.467 230.528 158.153 230.374 157.905H230.196V165.114H228.101ZM230.161 153.182C230.161 154.212 230.312 155.12 230.614 155.907C230.915 156.689 231.356 157.301 231.936 157.745C232.516 158.183 233.227 158.402 234.067 158.402C234.943 158.402 235.674 158.171 236.26 157.71C236.852 157.242 237.296 156.615 237.592 155.827C237.893 155.034 238.044 154.152 238.044 153.182C238.044 152.223 237.896 151.359 237.6 150.589C237.31 149.814 236.87 149.202 236.278 148.752C235.692 148.296 234.955 148.068 234.067 148.068C233.215 148.068 232.499 148.284 231.919 148.716C231.339 149.142 230.901 149.74 230.605 150.51C230.309 151.273 230.161 152.164 230.161 153.182ZM265.875 160.284C264.644 160.284 263.564 159.991 262.635 159.405C261.712 158.819 260.99 158 260.469 156.946C259.954 155.893 259.696 154.661 259.696 153.253C259.696 151.832 259.954 150.592 260.469 149.533C260.99 148.474 261.712 147.651 262.635 147.065C263.564 146.479 264.644 146.186 265.875 146.186C267.106 146.186 268.184 146.479 269.107 147.065C270.036 147.651 270.758 148.474 271.273 149.533C271.794 150.592 272.054 151.832 272.054 153.253C272.054 154.661 271.794 155.893 271.273 156.946C270.758 158 270.036 158.819 269.107 159.405C268.184 159.991 267.106 160.284 265.875 160.284ZM265.875 158.402C266.81 158.402 267.58 158.162 268.184 157.683C268.787 157.203 269.234 156.573 269.524 155.792C269.814 155.011 269.959 154.164 269.959 153.253C269.959 152.341 269.814 151.492 269.524 150.705C269.234 149.918 268.787 149.281 268.184 148.796C267.58 148.311 266.81 148.068 265.875 148.068C264.94 148.068 264.171 148.311 263.567 148.796C262.963 149.281 262.517 149.918 262.227 150.705C261.937 151.492 261.792 152.341 261.792 153.253C261.792 154.164 261.937 155.011 262.227 155.792C262.517 156.573 262.963 157.203 263.567 157.683C264.171 158.162 264.94 158.402 265.875 158.402ZM292.253 160V146.364H294.277V148.423H294.419C294.667 147.749 295.117 147.201 295.768 146.781C296.419 146.361 297.153 146.151 297.97 146.151C298.124 146.151 298.316 146.154 298.547 146.159C298.778 146.165 298.952 146.174 299.071 146.186V148.317C299 148.299 298.837 148.272 298.582 148.237C298.334 148.195 298.071 148.175 297.792 148.175C297.129 148.175 296.538 148.314 296.017 148.592C295.502 148.864 295.093 149.243 294.792 149.728C294.496 150.208 294.348 150.755 294.348 151.371V160H292.253ZM322.567 160.32C321.703 160.32 320.919 160.157 320.214 159.831C319.51 159.5 318.951 159.023 318.537 158.402C318.122 157.775 317.915 157.017 317.915 156.129C317.915 155.348 318.069 154.715 318.377 154.229C318.685 153.738 319.096 153.353 319.611 153.075C320.126 152.797 320.694 152.59 321.315 152.454C321.943 152.312 322.573 152.199 323.206 152.116C324.035 152.01 324.707 151.93 325.222 151.877C325.742 151.818 326.121 151.72 326.358 151.584C326.601 151.448 326.722 151.211 326.722 150.874V150.803C326.722 149.927 326.482 149.246 326.003 148.761C325.529 148.275 324.81 148.033 323.846 148.033C322.845 148.033 322.061 148.252 321.493 148.69C320.925 149.128 320.525 149.595 320.294 150.092L318.306 149.382C318.661 148.554 319.134 147.908 319.726 147.447C320.324 146.979 320.975 146.654 321.679 146.47C322.39 146.281 323.088 146.186 323.775 146.186C324.212 146.186 324.716 146.239 325.284 146.346C325.858 146.446 326.411 146.657 326.944 146.976C327.482 147.296 327.929 147.778 328.284 148.423C328.64 149.068 328.817 149.933 328.817 151.016V160H326.722V158.153H326.615C326.473 158.449 326.237 158.766 325.905 159.103C325.574 159.441 325.133 159.728 324.582 159.964C324.032 160.201 323.36 160.32 322.567 160.32ZM322.887 158.438C323.715 158.438 324.414 158.275 324.982 157.949C325.556 157.624 325.988 157.203 326.278 156.689C326.574 156.174 326.722 155.632 326.722 155.064V153.146C326.633 153.253 326.438 153.35 326.136 153.439C325.84 153.522 325.497 153.596 325.106 153.661C324.721 153.72 324.346 153.774 323.979 153.821C323.618 153.862 323.325 153.898 323.1 153.928C322.555 153.999 322.046 154.114 321.573 154.274C321.105 154.428 320.726 154.661 320.436 154.975C320.152 155.283 320.01 155.703 320.01 156.236C320.01 156.964 320.28 157.514 320.818 157.887C321.363 158.254 322.052 158.438 322.887 158.438ZM355.572 146.364V148.139H348.505V146.364H355.572ZM350.565 143.097H352.66V156.094C352.66 156.686 352.746 157.129 352.917 157.425C353.095 157.715 353.32 157.911 353.592 158.011C353.87 158.106 354.163 158.153 354.471 158.153C354.702 158.153 354.891 158.142 355.039 158.118C355.187 158.088 355.305 158.065 355.394 158.047L355.82 159.929C355.678 159.982 355.48 160.036 355.225 160.089C354.971 160.148 354.648 160.178 354.258 160.178C353.666 160.178 353.086 160.05 352.518 159.796C351.955 159.541 351.488 159.154 351.115 158.633C350.748 158.112 350.565 157.455 350.565 156.662V143.097ZM375.723 160V146.364H377.818V160H375.723ZM376.789 144.091C376.38 144.091 376.028 143.952 375.732 143.674C375.442 143.395 375.297 143.061 375.297 142.67C375.297 142.28 375.442 141.945 375.732 141.667C376.028 141.389 376.38 141.25 376.789 141.25C377.197 141.25 377.546 141.389 377.836 141.667C378.132 141.945 378.28 142.28 378.28 142.67C378.28 143.061 378.132 143.395 377.836 143.674C377.546 143.952 377.197 144.091 376.789 144.091ZM404.196 160.284C402.965 160.284 401.884 159.991 400.955 159.405C400.032 158.819 399.31 158 398.789 156.946C398.274 155.893 398.017 154.661 398.017 153.253C398.017 151.832 398.274 150.592 398.789 149.533C399.31 148.474 400.032 147.651 400.955 147.065C401.884 146.479 402.965 146.186 404.196 146.186C405.427 146.186 406.504 146.479 407.427 147.065C408.356 147.651 409.078 148.474 409.593 149.533C410.114 150.592 410.375 151.832 410.375 153.253C410.375 154.661 410.114 155.893 409.593 156.946C409.078 158 408.356 158.819 407.427 159.405C406.504 159.991 405.427 160.284 404.196 160.284ZM404.196 158.402C405.131 158.402 405.9 158.162 406.504 157.683C407.108 157.203 407.554 156.573 407.844 155.792C408.134 155.011 408.279 154.164 408.279 153.253C408.279 152.341 408.134 151.492 407.844 150.705C407.554 149.918 407.108 149.281 406.504 148.796C405.9 148.311 405.131 148.068 404.196 148.068C403.261 148.068 402.491 148.311 401.887 148.796C401.284 149.281 400.837 149.918 400.547 150.705C400.257 151.492 400.112 152.341 400.112 153.253C400.112 154.164 400.257 155.011 400.547 155.792C400.837 156.573 401.284 157.203 401.887 157.683C402.491 158.162 403.261 158.402 404.196 158.402ZM432.668 151.797V160H430.573V146.364H432.597V148.494H432.775C433.094 147.802 433.58 147.246 434.231 146.825C434.882 146.399 435.722 146.186 436.752 146.186C437.675 146.186 438.483 146.375 439.176 146.754C439.868 147.127 440.407 147.695 440.791 148.459C441.176 149.216 441.368 150.175 441.368 151.335V160H439.273V151.477C439.273 150.406 438.995 149.571 438.439 148.974C437.882 148.37 437.119 148.068 436.148 148.068C435.479 148.068 434.882 148.213 434.355 148.503C433.834 148.793 433.423 149.216 433.121 149.773C432.819 150.329 432.668 151.004 432.668 151.797Z" fill="#7A7C78"/>
</g>
<defs>
<filter id="filter0_d_224_23" x="134.278" y="138.25" width="317.09" height="37.8633" filterUnits="userSpaceOnUse" color-interpolation-filters="sRGB">
<feFlood flood-opacity="0" result="BackgroundImageFix"/>
<feColorMatrix in="SourceAlpha" type="matrix" values="0 0 0 0 0 0 0 0 0 0 0 0 0 0 0 0 0 0 127 0" result="hardAlpha"/>
<feOffset dx="3" dy="4"/>
<feGaussianBlur stdDeviation="3.5"/>
<feComposite in2="hardAlpha" operator="out"/>
<feColorMatrix type="matrix" values="0 0 0 0 0 0 0 0 0 0 0 0 0 0 0 0 0 0 0.25 0"/>
<feBlend mode="normal" in2="BackgroundImageFix" result="effect1_dropShadow_224_23"/>
<feBlend mode="normal" in="SourceGraphic" in2="effect1_dropShadow_224_23" result="shape"/>
</filter>
</defs>
</svg>
