<?xml version="1.0" encoding="UTF-8" standalone="no"?> <svg xmlns="http://www.w3.org/2000/svg" xmlns:xlink="http://www.w3.org/1999/xlink" viewBox="0 0 64 64"><defs><style>.cls-1{fill:url(#linear-gradient);}.cls-2{fill:url(#linear-gradient-2);}.cls-3{fill:url(#linear-gradient-3);}</style><linearGradient id="linear-gradient" x1="41.7" y1="32" x2="53.45" y2="32" gradientUnits="userSpaceOnUse"><stop offset="0" stop-color="#fcd702"/><stop offset="0.18" stop-color="#f8b802"/><stop offset="0.57" stop-color="#f17901"/><stop offset="0.85" stop-color="#ec5101"/><stop offset="1" stop-color="#ea4201"/></linearGradient><linearGradient id="linear-gradient-2" x1="26.13" y1="32" x2="37.87" y2="32" xlink:href="#linear-gradient"/><linearGradient id="linear-gradient-3" x1="10.55" y1="32" x2="22.3" y2="32" xlink:href="#linear-gradient"/></defs><g id="Layer_52" data-name="Layer 52"><path class="cls-1" d="M47.58,26.08c-7.83.25-7.83,11.6,0,11.84C55.41,37.67,55.4,26.32,47.58,26.08Zm0,8.84a2.92,2.92,0,0,1,0-5.84A2.92,2.92,0,0,1,47.58,34.92Z"/><path class="cls-2" d="M32,26.08c-7.83.25-7.83,11.6,0,11.84C39.83,37.67,39.83,26.32,32,26.08Zm0,8.84a2.92,2.92,0,0,1,0-5.84A2.92,2.92,0,0,1,32,34.92Z"/><path class="cls-3" d="M16.42,26.08c-7.83.25-7.82,11.6,0,11.84C24.25,37.67,24.25,26.32,16.42,26.08Zm0,8.84a2.92,2.92,0,0,1,0-5.84A2.92,2.92,0,0,1,16.42,34.92Z"/></g></svg>