<?xml version="1.0" encoding="iso-8859-1"?>
<!-- Generator: Adobe Illustrator 19.0.0, SVG Export Plug-In . SVG Version: 6.00 Build 0)  -->
<svg version="1.1" id="Layer_1" xmlns="http://www.w3.org/2000/svg" xmlns:xlink="http://www.w3.org/1999/xlink" x="0px" y="0px"
	 viewBox="0 0 512.001 512.001" style="enable-background:new 0 0 512.001 512.001;" xml:space="preserve">
<path style="fill:#005A95;" d="M216.303,254.699c-104.616,0-191.005,78.035-204.136,179.073c-0.88,6.775,1.202,13.599,5.714,18.729
	c4.512,5.13,11.015,8.06,17.847,8.06h361.149c6.826,0,13.319-2.943,17.827-8.068c4.508-5.126,6.613-11.953,5.734-18.722
	C407.308,332.734,320.919,254.699,216.303,254.699z"/>
<path style="fill:#31AAEF;" d="M216.303,254.699c-104.616,0-191.004,78.035-204.135,179.073c-0.88,6.775,1.202,13.599,5.714,18.729
	c4.512,5.13,11.015,8.06,17.847,8.06h180.574L216.303,254.699L216.303,254.699z"/>
<path style="fill:#003C61;" d="M313.597,279.138c-28.977-15.573-62.094-24.439-97.294-24.439s-68.317,8.866-97.294,24.439
	c22.858,33.968,57.935,55.735,97.294,55.735S290.739,313.105,313.597,279.138z"/>
<ellipse style="fill:#FFDBAC;" cx="216.3" cy="148.763" rx="124.718" ry="148.763"/>
<path style="fill:#FFEED9;" d="M216.303,0c-68.882,0-124.72,66.603-124.72,148.762s55.838,148.762,124.719,148.762V0H216.303z"/>
<circle style="fill:#FF9800;" cx="403.393" cy="415.358" r="96.639"/>
<path style="fill:#F7DC4D;" d="M306.749,415.358c0,53.375,43.268,96.643,96.643,96.643V318.715
	C350.017,318.715,306.749,361.983,306.749,415.358z"/>
<path style="fill:#003C61;" d="M441.742,398.644h-21.636v-21.636c0-9.23-7.483-16.714-16.714-16.714
	c-9.23,0-16.714,7.483-16.714,16.714v21.636h-21.638c-9.23,0-16.714,7.483-16.714,16.714c0,9.23,7.483,16.714,16.714,16.714h21.638
	v21.636c0,9.23,7.483,16.714,16.714,16.714c9.23,0,16.714-7.483,16.714-16.714v-21.636h21.636c9.23,0,16.714-7.483,16.714-16.714
	C458.456,406.128,450.974,398.644,441.742,398.644z"/>
<path style="fill:#005A95;" d="M403.392,360.294c-9.23,0-16.714,7.483-16.714,16.714v21.636h-21.638
	c-9.23,0-16.714,7.483-16.714,16.714c0,9.23,7.483,16.714,16.714,16.714h21.638v21.636c0,9.23,7.483,16.714,16.714,16.714V360.294z"
	/>
<g>
</g>
<g>
</g>
<g>
</g>
<g>
</g>
<g>
</g>
<g>
</g>
<g>
</g>
<g>
</g>
<g>
</g>
<g>
</g>
<g>
</g>
<g>
</g>
<g>
</g>
<g>
</g>
<g>
</g>
</svg>
