<?xml version="1.0" encoding="UTF-8" standalone="no"?> <svg id="Layer_1" data-name="Layer 1" xmlns="http://www.w3.org/2000/svg" viewBox="0 0 512 512"><defs><style>.cls-1{fill:#2d4a60;}.cls-2{fill:#263f52;}.cls-3{fill:#00aae5;}.cls-4{fill:#009ae0;}.cls-5{fill:#eaeff0;}.cls-6{fill:#bac2c6;}</style></defs><title>Computer</title><rect class="cls-1" x="341.333" y="85.333" width="160" height="341.333" rx="21.333" ry="21.333"/><rect class="cls-2" x="128" y="282.667" width="74.667" height="53.333"/><rect class="cls-1" x="10.667" y="85.333" width="309.333" height="213.333" rx="21.333" ry="21.333"/><path class="cls-2" d="M18.2,90.531a21.2,21.2,0,0,0-7.536,16.136V277.333A21.354,21.354,0,0,0,32,298.667H298.667a21.14,21.14,0,0,0,13.8-5.2Z"/><rect class="cls-3" x="32" y="106.667" width="266.667" height="170.667" rx="5.333" ry="5.333"/><path class="cls-4" d="M37.333,277.333H289.066L41.6,106.667H37.333A5.333,5.333,0,0,0,32,112V272A5.334,5.334,0,0,0,37.333,277.333Z"/><path class="cls-1" d="M282.667,341.333H48A5.333,5.333,0,0,1,42.667,336h0a16,16,0,0,1,16-16H272a16,16,0,0,1,16,16h0A5.333,5.333,0,0,1,282.667,341.333Z"/><path class="cls-5" d="M317.865,409.6l-32-42.667a10.664,10.664,0,0,0-8.531-4.266h-224a10.664,10.664,0,0,0-8.531,4.266L12.8,409.6a10.665,10.665,0,0,0,8.531,17.068h288a10.665,10.665,0,0,0,8.531-17.068Z"/><path class="cls-5" d="M341.376,426.667a10.66,10.66,0,0,1-10.244-13.719c3.8-12.475,13.839-28.948,40.35-28.948s36.55,16.473,40.35,28.948a10.66,10.66,0,0,1-10.244,13.719Z"/><path class="cls-6" d="M411.077,410.666H362.135a15.4,15.4,0,0,1-14.8-19.815c.063-.206.143-.423.208-.631-9.384,5.936-14.083,15.076-16.415,22.727a10.66,10.66,0,0,0,10.245,13.719h60.212a10.66,10.66,0,0,0,10.244-13.719C411.605,412.2,411.352,411.438,411.077,410.666Z"/><path class="cls-6" d="M464,154.667H378.667a5.333,5.333,0,1,1,0-10.667H464a5.333,5.333,0,0,1,0,10.667Z"/><path class="cls-6" d="M464,133.333H378.667a5.333,5.333,0,1,1,0-10.667H464a5.333,5.333,0,0,1,0,10.667Z"/><path class="cls-6" d="M464,208H378.667a5.333,5.333,0,1,1,0-10.667H464A5.333,5.333,0,0,1,464,208Z"/><path class="cls-6" d="M464,186.667H378.667a5.333,5.333,0,1,1,0-10.667H464a5.333,5.333,0,0,1,0,10.667Z"/><circle class="cls-5" cx="421.333" cy="330.667" r="10.667"/><path class="cls-6" d="M11.792,420.771a10.665,10.665,0,0,0,9.542,5.9h288a10.562,10.562,0,0,0,9.12-16H12.213A10.591,10.591,0,0,0,11.792,420.771Z"/><path class="cls-6" d="M288.316,400H42.266a2.667,2.667,0,0,1-2.231-4.127l13.174-20.127a5.333,5.333,0,0,1,4.462-2.413H272.5a5.333,5.333,0,0,1,4.42,2.349l13.609,20.159A2.667,2.667,0,0,1,288.316,400Z"/></svg>