<?xml version="1.0" encoding="iso-8859-1"?>
<!-- Generator: Adobe Illustrator 19.0.0, SVG Export Plug-In . SVG Version: 6.00 Build 0)  -->
<svg version="1.1" id="Layer_1" xmlns="http://www.w3.org/2000/svg" xmlns:xlink="http://www.w3.org/1999/xlink" x="0px" y="0px"
	 viewBox="0 0 512 512" style="enable-background:new 0 0 512 512;" xml:space="preserve">
<circle style="fill:#C5DFE2;" cx="217.61" cy="217.6" r="204.8"/>
<rect x="236.383" y="265.387" style="fill:#BCB0AD;" width="66.637" height="52.446"/>
<path style="fill:#919CB0;" d="M194.365,365.201l-6.903-86.852H160.59l18.714-102.972h76.604l16.35,90.001h-23.074
	c-7.057,0-12.8,5.743-12.8,12.8v26.846c0,3.422,1.34,6.639,3.763,9.062l4.147,4.139l-3.379,46.976H194.365z"/>
<path style="fill:#FFE7E5;" d="M217.601,150.528c-21.854,0-39.637-17.783-39.637-39.646s17.783-39.646,39.637-39.646
	s39.637,17.783,39.637,39.646S239.455,150.528,217.601,150.528z"/>
<g>
	<path style="fill:#573A32;" d="M508.255,490.146l-128-128c-0.06-0.06-0.137-0.077-0.196-0.128
		c34.193-38.434,55.142-88.917,55.142-144.418c0-120.175-97.425-217.6-217.6-217.6S0.001,97.425,0.001,217.6
		s97.425,217.6,217.6,217.6c55.501,0,105.975-20.949,144.418-55.151c0.06,0.06,0.077,0.137,0.128,0.196l128,128
		c2.5,2.509,5.777,3.755,9.054,3.755c3.277,0,6.554-1.246,9.054-3.746C513.247,503.253,513.247,495.147,508.255,490.146z
		 M217.601,409.6c-105.865,0-192-86.135-192-192s86.135-192,192-192s192,86.135,192,192S323.466,409.6,217.601,409.6z"/>
	<path style="fill:#573A32;" d="M269.697,110.874c0-28.723-23.373-52.079-52.096-52.079s-52.087,23.347-52.087,52.079
		s23.364,52.079,52.087,52.079S269.697,139.597,269.697,110.874z M217.601,137.728c-14.797,0-26.837-12.049-26.837-26.846
		s12.041-26.846,26.837-26.846s26.837,12.049,26.837,26.846S232.398,137.728,217.601,137.728z"/>
	<path style="fill:#573A32;" d="M290.22,252.578h-7.612l-13.235-72.798c-1.775-9.754-10.274-16.828-20.198-16.828h-31.573h-31.565
		c-9.924,0-18.423,7.074-20.198,16.828l-15.787,86.852c-1.084,5.999,0.529,12.126,4.437,16.802
		c3.908,4.702,9.651,7.373,15.761,7.373h5.709l5.385,67.951c0.862,10.598,9.847,18.876,20.463,18.876h31.573
		c10.641,0,19.627-8.277,20.463-18.876l2.236-28.126h34.133c14.14,0,25.6-11.46,25.6-25.6v-26.846
		C315.82,264.038,304.359,252.578,290.22,252.578z M223.583,278.178v26.846c0,7.083,2.884,13.491,7.535,18.125l-2.099,29.252
		h-22.827l-6.903-86.852h-23.364l14.063-77.372h14.985v43.298c0,6.972,5.666,12.621,12.621,12.621
		c6.955,0,12.638-5.649,12.638-12.621v-43.298h14.985l11.699,64.401h-7.74C235.043,252.578,223.583,264.038,223.583,278.178z
		 M290.22,305.024h-41.037v-26.846h41.037V305.024z"/>
</g>
<g>
</g>
<g>
</g>
<g>
</g>
<g>
</g>
<g>
</g>
<g>
</g>
<g>
</g>
<g>
</g>
<g>
</g>
<g>
</g>
<g>
</g>
<g>
</g>
<g>
</g>
<g>
</g>
<g>
</g>
</svg>
