<?xml version="1.0" encoding="UTF-8" standalone="no"?> <svg id="Layer_1" data-name="Layer 1" xmlns="http://www.w3.org/2000/svg" viewBox="0 0 512 512"><defs><style>.cls-1{fill:#263f52;}.cls-2{fill:#2d4a60;}.cls-3{fill:#eaeff0;}.cls-4{fill:#bac2c6;}.cls-5{fill:#00cf66;}.cls-6{fill:#fac100;}.cls-7{fill:#fd3730;}.cls-8{fill:#8fa5a5;}</style></defs><title>Router</title><path class="cls-1" d="M64,405.333v32A10.667,10.667,0,0,0,74.667,448H96a10.667,10.667,0,0,0,10.667-10.667v-32Z"/><path class="cls-1" d="M448,405.333v32A10.667,10.667,0,0,1,437.333,448H416a10.667,10.667,0,0,1-10.667-10.667v-32Z"/><path class="cls-2" d="M74.667,245.333V80a16,16,0,0,1,16-16h0a16,16,0,0,1,16,16V245.333Z"/><rect class="cls-1" x="74.667" y="213.333" width="32" height="32"/><path class="cls-2" d="M437.333,245.333V80a16,16,0,0,0-16-16h0a16,16,0,0,0-16,16V245.333Z"/><rect class="cls-1" x="405.333" y="213.333" width="32" height="32"/><rect class="cls-3" x="21.333" y="234.667" width="469.333" height="181.333" rx="21.333" ry="21.333"/><path class="cls-4" d="M469.333,394.667H42.667a21.333,21.333,0,0,1-21.333-21.333v21.333A21.333,21.333,0,0,0,42.667,416H469.333a21.333,21.333,0,0,0,21.333-21.333V373.333A21.333,21.333,0,0,1,469.333,394.667Z"/><path class="cls-4" d="M170.667,293.333h-96a5.333,5.333,0,1,1,0-10.667h96a5.333,5.333,0,0,1,0,10.667Z"/><circle class="cls-5" cx="437.333" cy="288" r="10.667"/><circle class="cls-6" cx="405.333" cy="288" r="10.667"/><circle class="cls-7" cx="373.333" cy="288" r="10.667"/><path class="cls-8" d="M171.9,130.11v0a10.665,10.665,0,0,1,4.445-14.415h0a170.949,170.949,0,0,1,159.307,0l.014.007a10.651,10.651,0,0,1,4.44,14.395l-.014.026a10.651,10.651,0,0,1-14.393,4.44l-.016-.008a149.628,149.628,0,0,0-139.37,0h0A10.665,10.665,0,0,1,171.9,130.11Z"/><path class="cls-8" d="M299.644,169.308l-.014-.006a106.542,106.542,0,0,0-87.26,0h0a10.666,10.666,0,0,1-14.1-5.361l0,0a10.666,10.666,0,0,1,5.36-14.1h0a128.331,128.331,0,0,1,104.74,0l.013.006a10.651,10.651,0,0,1,5.353,14.08l-.013.03A10.651,10.651,0,0,1,299.644,169.308Z"/><path class="cls-8" d="M224.447,198.143l0-.011a10.661,10.661,0,0,1,7.175-13.26l.006,0a85.426,85.426,0,0,1,48.757,0h0a10.651,10.651,0,0,1,7.169,13.246l-.009.03a10.651,10.651,0,0,1-13.246,7.172l-.021-.006a64.079,64.079,0,0,0-36.567.007h0A10.661,10.661,0,0,1,224.447,198.143Z"/></svg>