<?xml version="1.0" standalone="no"?>
<!DOCTYPE svg PUBLIC "-//W3C//DTD SVG 20010904//EN"
 "http://www.w3.org/TR/2001/REC-SVG-20010904/DTD/svg10.dtd">
<svg version="1.0" xmlns="http://www.w3.org/2000/svg"
 width="497.000000pt" height="167.000000pt" viewBox="0 0 497.000000 167.000000"
 preserveAspectRatio="xMidYMid meet">

<g transform="translate(0.000000,167.000000) scale(0.100000,-0.100000)"
fill="#000000" stroke="none">
<path d="M1440 1001 c0 -241 4 -440 9 -454 16 -40 61 -65 132 -72 46 -5 60 -4
49 4 -8 6 -26 11 -41 11 -14 0 -30 5 -37 12 -9 9 -12 127 -12 470 l0 458 -50
0 -50 0 0 -429z"/>
<path d="M172 1345 c-130 -66 -147 -236 -33 -337 54 -48 146 -97 246 -132 55
-19 128 -73 146 -108 27 -53 26 -135 -4 -179 -27 -40 -76 -75 -126 -89 -59
-16 -173 -12 -241 9 -76 24 -67 11 10 -15 39 -13 86 -18 160 -19 97 0 110 2
165 30 81 40 115 90 122 176 7 84 -10 141 -55 191 -49 55 -94 82 -214 128
-143 56 -182 81 -202 130 -67 169 107 274 349 210 84 -21 99 -18 23 6 -32 10
-100 18 -173 21 -115 4 -122 3 -173 -22z"/>
<path d="M2817 1329 c-29 -41 13 -100 60 -83 37 13 47 47 22 78 -25 31 -62 34
-82 5z"/>
<path d="M2420 1180 c0 -38 -4 -60 -11 -60 -8 0 -8 -4 -1 -13 6 -7 12 -111 14
-272 3 -226 5 -264 21 -292 25 -46 57 -64 124 -68 47 -4 52 -3 24 4 -67 18
-66 11 -69 331 l-3 290 96 0 c62 0 94 4 90 10 -3 6 -46 10 -96 10 l-89 0 0 54
c0 59 -7 66 -66 66 l-34 0 0 -60z"/>
<path d="M914 1102 c-109 -38 -176 -123 -194 -249 -31 -219 80 -369 281 -381
99 -6 162 14 227 73 75 68 97 125 97 260 0 104 -2 113 -30 164 -70 126 -234
184 -381 133z m179 -3 c52 -14 102 -61 124 -117 14 -36 18 -75 18 -172 0 -123
-1 -127 -35 -195 -56 -112 -141 -154 -250 -125 -99 27 -144 120 -143 295 1
119 23 191 81 255 55 61 125 81 205 59z"/>
<path d="M1730 852 c0 -263 1 -270 23 -302 41 -61 67 -73 164 -76 49 -1 70 0
48 2 -145 15 -139 -1 -145 354 l-5 285 -42 3 -43 3 0 -269z"/>
<path d="M2148 856 c-2 -146 0 -280 3 -297 12 -56 47 -80 124 -87 50 -4 66 -2
61 7 -4 6 -22 11 -41 11 -19 0 -37 6 -42 13 -4 6 -10 147 -13 312 l-5 300 -42
3 -42 3 -3 -265z"/>
<path d="M2810 831 l0 -291 28 -31 c24 -27 35 -32 96 -36 51 -5 67 -3 62 6 -4
6 -22 11 -41 11 -19 0 -37 6 -42 13 -4 6 -10 147 -13 312 l-5 300 -42 3 -43 3
0 -290z"/>
<path d="M3260 1111 c-90 -30 -155 -86 -192 -166 -19 -42 -23 -67 -23 -155 0
-95 3 -110 28 -162 28 -57 70 -98 137 -134 54 -29 220 -27 276 3 99 53 146
121 164 241 34 217 -80 369 -285 378 -44 2 -91 0 -105 -5z m210 -35 c128 -84
130 -418 3 -538 -84 -80 -220 -74 -286 14 -61 80 -76 295 -28 403 61 139 202
194 311 121z"/>
<path d="M3732 798 l3 -323 43 -3 42 -3 1 243 c2 269 0 389 -8 400 -2 5 -22 8
-44 8 l-39 0 2 -322z"/>
<path d="M3993 1112 c-6 -4 15 -7 48 -7 47 0 63 -4 81 -23 22 -22 23 -28 28
-287 l5 -265 26 -26 c22 -22 38 -27 95 -31 48 -4 66 -2 59 5 -5 6 -26 12 -45
14 -27 2 -36 8 -41 28 -4 14 -7 131 -8 260 -1 234 -1 236 -26 272 -19 29 -37
41 -77 53 -55 16 -125 20 -145 7z"/>
<path d="M4498 1104 c-62 -19 -98 -62 -98 -117 0 -82 54 -133 195 -188 125
-48 165 -87 165 -164 0 -118 -123 -183 -265 -140 -57 17 -70 14 -23 -6 21 -9
71 -14 138 -14 97 0 109 2 153 28 54 32 76 60 84 110 17 106 -36 168 -204 241
-61 26 -119 56 -128 66 -42 47 -24 141 33 172 27 14 116 17 172 6 33 -7 33 -6
-5 7 -52 18 -158 17 -217 -1z"/>
<path d="M3160 339 c0 -5 5 -7 10 -4 6 3 10 8 10 11 0 2 -4 4 -10 4 -5 0 -10
-5 -10 -11z"/>
<path d="M2941 318 c0 -9 -7 -19 -13 -21 -10 -4 -10 -6 0 -6 8 -1 12 -19 12
-55 0 -40 4 -55 16 -60 24 -9 31 -7 12 5 -13 7 -18 23 -18 59 0 38 4 50 18 53
15 4 15 5 0 6 -9 0 -19 9 -21 19 -4 15 -5 15 -6 0z"/>
<path d="M1026 284 c-23 -22 -20 -77 4 -99 16 -15 26 -17 47 -9 14 5 29 16 31
24 4 11 1 10 -12 -3 -22 -21 -40 -22 -60 -1 -19 18 -21 65 -4 82 16 16 50 15
68 0 12 -11 12 -10 1 5 -17 21 -54 22 -75 1z"/>
<path d="M1307 282 c-34 -37 -6 -113 41 -111 11 0 7 4 -11 11 -32 11 -45 48
-28 84 12 26 48 33 69 12 16 -16 15 -70 0 -88 -11 -12 -10 -12 5 -1 19 15 23
62 7 92 -14 25 -61 25 -83 1z"/>
<path d="M1593 235 c0 -38 2 -53 4 -32 2 20 2 52 0 70 -2 17 -4 1 -4 -38z"/>
<path d="M1628 293 c7 -3 16 -2 19 1 4 3 -2 6 -13 5 -11 0 -14 -3 -6 -6z"/>
<path d="M1820 212 c0 -55 4 -92 10 -92 6 0 10 17 10 37 0 29 3 34 12 25 32
-32 78 4 78 60 0 41 -19 61 -52 55 -21 -4 -21 -4 3 -6 56 -2 53 -111 -2 -111
-25 0 -41 25 -43 70 -4 79 -16 51 -16 -38z"/>
<path d="M2126 278 c-22 -31 -20 -64 4 -88 27 -27 55 -25 80 7 22 28 21 63 -2
90 -17 21 -65 16 -82 -9z m82 -31 c4 -44 -12 -69 -42 -65 -31 5 -50 47 -37 81
9 24 16 28 43 25 30 -3 33 -6 36 -41z"/>
<path d="M2410 235 c0 -38 2 -66 4 -64 8 7 10 118 3 126 -4 3 -7 -24 -7 -62z"/>
<path d="M2448 293 c7 -3 16 -2 19 1 4 3 -2 6 -13 5 -11 0 -14 -3 -6 -6z"/>
<path d="M2657 293 c-3 -5 11 -8 31 -8 43 0 59 -30 20 -38 l-23 -4 24 -2 c19
-1 22 -5 18 -24 -4 -12 -2 -29 3 -37 7 -10 10 2 10 41 0 30 -5 60 -12 67 -13
13 -64 16 -71 5z"/>
<path d="M3163 235 c0 -38 2 -53 4 -32 2 20 2 52 0 70 -2 17 -4 1 -4 -38z"/>
<path d="M3376 284 c-34 -33 -9 -114 35 -114 31 0 59 30 59 65 0 39 -22 65
-55 65 -13 0 -31 -7 -39 -16z m72 -6 c28 -28 4 -98 -33 -98 -22 0 -45 30 -45
59 0 32 16 51 45 51 12 0 26 -5 33 -12z"/>
<path d="M3663 235 c0 -38 2 -53 4 -32 2 20 2 52 0 70 -2 17 -4 1 -4 -38z"/>
<path d="M3710 292 c22 -7 26 -15 31 -67 l6 -60 -1 65 c-1 65 -1 65 -31 67
-28 2 -28 1 -5 -5z"/>
<path d="M2643 224 c-9 -23 10 -49 36 -50 20 -2 20 -1 1 3 -30 6 -37 33 -15
49 17 13 17 14 2 14 -10 0 -20 -7 -24 -16z"/>
</g>
</svg>
